<svg width="124" height="29" viewBox="0 0 124 29" xmlns="http://www.w3.org/2000/svg"><title>logo</title><g fill="none" fill-rule="evenodd"><path d="M16.937 13.827c0-.991.496-1.487 1.442-1.487s1.442.496 1.442 1.487v.496h.045c.27-.676.676-1.172 1.261-1.487.586-.316 1.262-.496 2.073-.496.676 0 1.306.135 1.892.36.586.226 1.127.631 1.577 1.127.45.496.811 1.126 1.081 1.892.27.766.406 1.622.406 2.658 0 .766-.09 1.487-.27 2.208-.18.721-.496 1.307-.902 1.892-.405.541-.9.992-1.531 1.307-.586.315-1.307.496-2.163.496-.72 0-1.352-.136-1.892-.406a2.783 2.783 0 0 1-1.217-1.171h-.045v4.235c0 .54-.135.901-.45 1.171-.27.27-.676.406-1.127.406-.45 0-.856-.135-1.126-.406-.27-.27-.45-.676-.45-1.171V13.827h-.046zm8.02 4.415c0-.45-.045-.9-.135-1.306-.09-.406-.27-.766-.45-1.082-.226-.315-.451-.585-.812-.766a2.14 2.14 0 0 0-1.081-.27c-.45 0-.856.09-1.171.27-.316.18-.586.451-.766.766-.18.316-.36.676-.45 1.082a6.054 6.054 0 0 0-.136 1.306c0 .406.045.811.135 1.217.09.405.225.81.406 1.126.18.36.45.63.766.811.315.225.72.316 1.216.316s.901-.09 1.262-.316c.315-.225.585-.495.765-.856.18-.36.316-.72.406-1.126 0-.406.045-.811.045-1.172zm5.181-4.415c0-.991.496-1.487 1.442-1.487s1.442.496 1.442 1.487v.496h.045c.27-.676.676-1.172 1.261-1.487.586-.316 1.262-.496 2.073-.496.676 0 1.307.135 1.892.36.586.226 1.127.631 1.577 1.127.45.496.811 1.126 1.082 1.892.27.766.405 1.622.405 2.658 0 .766-.09 1.487-.27 2.208-.18.721-.496 1.307-.901 1.892-.406.541-.902.992-1.532 1.307-.586.315-1.307.496-2.163.496-.72 0-1.352-.136-1.892-.406a2.783 2.783 0 0 1-1.217-1.171h-.045v4.235c0 .54-.135.901-.45 1.171-.27.27-.676.406-1.127.406-.45 0-.856-.135-1.126-.406-.27-.27-.45-.676-.45-1.171V13.827h-.046zm8.02 4.415c0-.45-.045-.9-.135-1.306-.09-.406-.27-.766-.45-1.082-.226-.315-.451-.585-.812-.766a2.14 2.14 0 0 0-1.08-.27c-.451 0-.857.09-1.172.27-.316.18-.586.451-.766.766-.18.316-.36.676-.45 1.082-.09.405-.136.856-.136 1.306 0 .406.045.811.135 1.217.09.405.225.81.406 1.126.18.36.45.63.766.811.315.225.72.316 1.216.316s.901-.09 1.262-.316c.315-.225.585-.495.766-.856.18-.36.315-.72.405-1.126.045-.406.045-.811.045-1.172z" fill="#FC3768"/><path d="M43.384 9.637c0-.54.136-.901.451-1.172.27-.27.676-.405 1.126-.405.451 0 .856.135 1.127.405.27.27.45.676.45 1.172v4.28h.045c.316-.496.721-.901 1.262-1.171.54-.27 1.126-.406 1.847-.406.856 0 1.577.18 2.163.496a4.74 4.74 0 0 1 1.532 1.306c.405.54.72 1.172.9 1.893.181.72.271 1.441.271 2.162 0 1.036-.135 1.893-.405 2.658a5.945 5.945 0 0 1-1.082 1.893c-.45.495-.99.856-1.577 1.126a5.237 5.237 0 0 1-1.892.36c-.766 0-1.442-.18-2.072-.495a2.59 2.59 0 0 1-1.262-1.487h-.045v.496c0 .991-.496 1.487-1.442 1.487s-1.442-.496-1.442-1.487V9.637h.045zm8.02 8.65c0-.36-.045-.766-.09-1.171-.09-.406-.18-.811-.405-1.126-.18-.36-.45-.631-.766-.857-.316-.225-.721-.36-1.262-.36-.495 0-.856.09-1.216.315a2.62 2.62 0 0 0-.766.811 4.79 4.79 0 0 0-.406 1.127c-.09.405-.135.81-.135 1.216 0 .45.045.901.135 1.307.09.405.226.766.45 1.081.181.316.451.586.767.766.315.18.72.27 1.171.27.406 0 .766-.09 1.082-.27.315-.18.585-.45.81-.766.226-.315.36-.676.451-1.081.135-.36.18-.811.18-1.262zm4.686-.045c0-.856.135-1.622.36-2.343.27-.72.631-1.351 1.127-1.892.495-.54 1.081-.946 1.847-1.261.72-.316 1.577-.451 2.523-.451.946 0 1.802.135 2.523.45.721.316 1.352.721 1.847 1.262.496.54.857 1.172 1.127 1.892.27.721.36 1.487.36 2.343 0 .811-.09 1.532-.315 2.253-.18.72-.54 1.352-.991 1.892-.45.541-1.082.992-1.803 1.307-.72.315-1.667.496-2.748.496-1.081 0-1.982-.18-2.748-.496-.721-.315-1.352-.766-1.802-1.307-.451-.54-.811-1.171-.992-1.892a8.771 8.771 0 0 1-.315-2.253zm3.154 0c0 .496.045.946.135 1.352.09.45.27.81.496 1.171.225.36.495.586.81.811.361.18.767.27 1.217.27.45 0 .901-.09 1.217-.27.36-.18.63-.45.81-.81.18-.361.361-.722.496-1.172.09-.45.135-.901.135-1.352 0-.54-.045-.99-.18-1.441a2.854 2.854 0 0 0-.496-1.127 2.62 2.62 0 0 0-.81-.766c-.36-.18-.721-.27-1.217-.27-.45 0-.856.09-1.216.27-.36.18-.631.45-.811.766-.226.316-.36.721-.496 1.127 0 .45-.09.946-.09 1.441zm10.092 0c0-.856.135-1.622.36-2.343.27-.72.631-1.351 1.127-1.892.496-.54 1.081-.946 1.847-1.261.721-.316 1.577-.451 2.523-.451.946 0 1.802.135 2.523.45.721.316 1.352.721 1.848 1.262.495.54.856 1.172 1.126 1.892.27.721.36 1.487.36 2.343 0 .811-.09 1.532-.315 2.253-.18.72-.54 1.352-.991 1.892-.45.541-1.081.992-1.802 1.307-.721.315-1.667.496-2.749.496-1.081 0-1.982-.18-2.748-.496-.72-.315-1.352-.766-1.802-1.307-.45-.54-.811-1.171-.991-1.892-.226-.676-.316-1.442-.316-2.253zm3.154 0c0 .496.045.946.135 1.352.09.45.27.81.496 1.171.225.36.495.586.81.811.361.18.767.27 1.217.27.45 0 .901-.09 1.217-.27.36-.18.63-.45.81-.81.18-.361.361-.722.496-1.172.09-.45.135-.901.135-1.352 0-.54-.045-.99-.18-1.441a2.867 2.867 0 0 0-.495-1.127 2.62 2.62 0 0 0-.811-.766c-.36-.18-.721-.27-1.217-.27-.45 0-.856.09-1.216.27-.36.18-.631.45-.811.766-.226.316-.36.721-.496 1.127-.045.45-.09.946-.09 1.441zm10.047-2.388c0-.63.135-1.216.45-1.622.271-.45.677-.81 1.127-1.08.45-.271.946-.497 1.532-.587.54-.135 1.126-.18 1.667-.18.586 0 1.217.045 1.757.18.586.136 1.082.27 1.532.496.45.225.811.45 1.081.766.27.315.406.63.406.991 0 .36-.135.721-.36.991-.226.27-.541.406-.992.406a1.4 1.4 0 0 1-.766-.225c-.225-.136-.405-.316-.585-.496-.226-.18-.451-.36-.766-.496-.27-.135-.676-.225-1.172-.225-.54 0-.991.09-1.306.225-.316.18-.496.406-.496.721 0 .36.18.631.496.766.315.135.72.27 1.216.36l1.307.316c.45.09.9.225 1.351.405.45.18.901.36 1.262.631.36.27.676.586.946.946.225.36.36.856.36 1.397 0 .63-.135 1.217-.405 1.667-.27.45-.63.856-1.126 1.172-.45.315-.992.54-1.577.675a7.828 7.828 0 0 1-1.757.226c-.721 0-1.397-.09-2.028-.226-.63-.135-1.171-.36-1.667-.585-.496-.27-.856-.541-1.126-.901-.27-.36-.406-.721-.406-1.082 0-.36.09-.63.316-.9.18-.271.54-.406.99-.406.361 0 .632.09.857.315.225.225.45.406.72.676.271.225.541.45.902.676.36.18.81.315 1.397.315.54 0 .99-.09 1.351-.315.316-.226.496-.496.496-.811 0-.406-.18-.676-.496-.811-.315-.135-.766-.27-1.351-.406l-1.848-.45c-.45-.136-.9-.27-1.306-.406a3.99 3.99 0 0 1-1.037-.63 2.3 2.3 0 0 1-.675-.947c-.18-.54-.27-.991-.27-1.532zm12.931-1.171h-.54c-.451 0-.767-.09-.947-.27-.18-.18-.27-.45-.27-.766 0-.36.09-.586.27-.766.18-.18.496-.27.946-.27h.541v-1.938c0-.54.135-.901.45-1.171.27-.27.676-.406 1.127-.406.496 0 .856.135 1.126.406.27.27.45.675.45 1.171v1.937h.947c.45 0 .811.09 1.081.226.226.18.36.405.36.81 0 .406-.134.631-.36.812-.225.18-.585.225-1.081.225h-.946v6.308c0 .495.27.72.81.72h.451c.36 0 .631.09.811.27.18.181.27.451.27.767 0 .946-.765 1.396-2.297 1.396-1.172 0-1.983-.225-2.478-.72-.496-.45-.766-1.172-.766-2.118v-6.623h.045zm9.867 4.19c0 .856.27 1.532.766 2.073.496.54 1.216.81 2.163.81.585 0 1.036-.09 1.396-.225.36-.18.631-.315.856-.54.226-.18.45-.36.631-.541.18-.18.45-.27.766-.27.36 0 .676.135.946.405.225.27.36.54.36.811 0 .496-.18.901-.495 1.262-.36.36-.766.63-1.261.856a6.189 6.189 0 0 1-1.622.495 6.775 6.775 0 0 1-1.577.18c-1.127 0-2.028-.18-2.794-.495-.766-.36-1.396-.766-1.892-1.352a5.12 5.12 0 0 1-1.081-1.847 6.426 6.426 0 0 1-.316-2.072c0-.902.135-1.758.406-2.524a5.578 5.578 0 0 1 1.171-1.937c.496-.54 1.126-.946 1.892-1.261.721-.316 1.577-.451 2.524-.451.9 0 1.712.135 2.432.45.721.316 1.307.676 1.803 1.172a5.192 5.192 0 0 1 1.126 1.667c.27.63.36 1.262.36 1.892 0 .541-.09.901-.27 1.082-.18.18-.54.27-1.081.27h-7.209v.09zm5.542-1.847c-.09-.721-.36-1.352-.856-1.802-.496-.45-1.082-.721-1.802-.721-.811 0-1.442.225-1.893.676-.495.45-.81 1.08-.991 1.847h5.542zm5.181-3.244c0-.496.135-.856.406-1.081.27-.27.63-.36 1.036-.36.405 0 .72.134 1.036.36.27.27.406.63.406 1.08v1.217h.045c.09-.315.18-.675.36-.99.135-.316.316-.587.54-.857.226-.27.451-.45.722-.63.27-.18.63-.226.99-.226.496 0 .902.135 1.262.45.316.27.496.676.496 1.082 0 .27-.045.54-.135.72a2 2 0 0 1-.36.496 1.074 1.074 0 0 1-.496.27c-.18.046-.36.09-.54.09h-.542c-.63 0-1.126.271-1.441.767-.36.495-.496 1.442-.496 2.748v3.695c0 .405-.09.766-.315 1.08-.226.316-.631.497-1.262.497-.63 0-1.036-.18-1.261-.496-.226-.315-.316-.676-.316-1.081v-8.831h-.135z" fill="#FFF"/><path d="M13.288 7.654L9.728.355l-7.344 3.56L6.35 5.266.582 21.982a1.61 1.61 0 0 0 .992 2.027c.18.045.36.09.495.09a1.54 1.54 0 0 0 1.487-1.08L9.323 6.302l3.965 1.351z" fill="#FC3768"/><path d="M15.36 21.937c-.09-.27-.135-.496-.225-.676l-4.28-11.895c-.18-.54-.45-.9-.811-1.08-.045-.046-.09-.046-.18-.046l-1.262 3.785 1.937 5.992H6.484l-.856 2.703h5.677l.901 2.568c.136.36.316.586.586.721.27.135.586.226.991.226.45 0 .856-.136 1.172-.451.315-.315.495-.676.495-1.126.045-.226 0-.45-.09-.721z" fill="#FC3768"/></g></svg>